0
SECTION
2
ENTITIES
0
LINE
8
0
10
0.0
20
9.525
11
428.625
21
9.525
0
LINE
8
0
10
438.15
20
-0.0
11
438.15
21
-142.875
0
LINE
8
0
10
428.625
20
-152.4
11
0.0
21
-152.4
0
LINE
8
0
10
-9.525
20
-142.875
11
-9.525
21
-0.0
0
ARC
8
0
10
428.625
20
-0.0
40
9.525
50
0
51
90
0
ARC
8
0
10
428.625
20
-142.875
40
9.525
50
270
51
0
0
ARC
8
0
10
0.0
20
-142.875
40
9.525
50
180
51
270
0
ARC
8
0
10
0.0
20
-0.0
40
9.525
50
90
51
180
0
CIRCLE
8
0
10
0.0
20
-0.0
40
2.2
0
CIRCLE
8
0
10
428.625
20
-0.0
40
2.2
0
CIRCLE
8
0
10
428.625
20
-142.875
40
2.2
0
CIRCLE
8
0
10
0.0
20
-142.875
40
2.2
0
POLYLINE
8
0
66
1
70
0
0
VERTEX
8
0
70
0
10
2.5250000000000004
20
-16.525
0
VERTEX
8
0
70
0
10
2.5250000000000004
20
-2.5250000000000004
0
VERTEX
8
0
70
0
10
16.525
20
-2.5250000000000004
0
VERTEX
8
0
70
0
10
16.525
20
-16.525
0
VERTEX
8
0
70
0
10
2.5250000000000004
20
-16.525
0
SEQEND
0
POLYLINE
8
0
66
1
70
0
0
VERTEX
8
0
70
0
10
26.3375
20
-16.525
0
VERTEX
8
0
70
0
10
26.3375
20
-2.5250000000000004
0
VERTEX
8
0
70
0
10
40.3375
20
-2.5250000000000004
0
VERTEX
8
0
70
0
10
40.3375
20
-16.525
0
VERTEX
8
0
70
0
10
26.3375
20
-16.525
0
SEQEND
0
POLYLINE
8
0
66
1
70
0
0
VERTEX
8
0
70
0
10
45.3875
20
-16.525
0
VERTEX
8
0
70
0
10
45.3875
20
-2.5250000000000004
0
VERTEX
8
0
70
0
10
59.3875
20
-2.5250000000000004
0
VERTEX
8
0
70
0
10
59.3875
20
-16.525
0
VERTEX
8
0
70
0
10
45.3875
20
-16.525
0
SEQEND
0
POLYLINE
8
0
66
1
70
0
0
VERTEX
8
0
70
0
10
64.4375
20
-16.525
0
VERTEX
8
0
70
0
10
64.4375
20
-2.5250000000000004
0
VERTEX
8
0
70
0
10
78.4375
20
-2.5250000000000004
0
VERTEX
8
0
70
0
10
78.4375
20
-16.525
0
VERTEX
8
0
70
0
10
64.4375
20
-16.525
0
SEQEND
0
POLYLINE
8
0
66
1
70
0
0
VERTEX
8
0
70
0
10
83.4875
20
-16.525
0
VERTEX
8
0
70
0
10
83.4875
20
-2.5250000000000004
0
VERTEX
8
0
70
0
10
97.4875
20
-2.5250000000000004
0
VERTEX
8
0
70
0
10
97.4875
20
-16.525
0
VERTEX
8
0
70
0
10
83.4875
20
-16.525
0
SEQEND
0
POLYLINE
8
0
66
1
70
0
0
VERTEX
8
0
70
0
10
102.53750000000001
20
-16.525
0
VERTEX
8
0
70
0
10
102.53750000000001
20
-2.5250000000000004
0
VERTEX
8
0
70
0
10
116.53750000000001
20
-2.5250000000000004
0
VERTEX
8
0
70
0
10
116.53750000000001
20
-16.525
0
VERTEX
8
0
70
0
10
102.53750000000001
20
-16.525
0
SEQEND
0
POLYLINE
8
0
66
1
70
0
0
VERTEX
8
0
70
0
10
121.5875
20
-16.525
0
VERTEX
8
0
70
0
10
121.5875
20
-2.5250000000000004
0
VERTEX
8
0
70
0
10
135.5875
20
-2.5250000000000004
0
VERTEX
8
0
70
0
10
135.5875
20
-16.525
0
VERTEX
8
0
70
0
10
121.5875
20
-16.525
0
SEQEND
0
POLYLINE
8
0
66
1
70
0
0
VERTEX
8
0
70
0
10
140.63750000000002
20
-16.525
0
VERTEX
8
0
70
0
10
140.63750000000002
20
-2.5250000000000004
0
VERTEX
8
0
70
0
10
154.63750000000002
20
-2.5250000000000004
0
VERTEX
8
0
70
0
10
154.63750000000002
20
-16.525
0
VERTEX
8
0
70
0
10
140.63750000000002
20
-16.525
0
SEQEND
0
POLYLINE
8
0
66
1
70
0
0
VERTEX
8
0
70
0
10
159.6875
20
-16.525
0
VERTEX
8
0
70
0
10
159.6875
20
-2.5250000000000004
0
VERTEX
8
0
70
0
10
173.6875
20
-2.5250000000000004
0
VERTEX
8
0
70
0
10
173.6875
20
-16.525
0
VERTEX
8
0
70
0
10
159.6875
20
-16.525
0
SEQEND
0
POLYLINE
8
0
66
1
70
0
0
VERTEX
8
0
70
0
10
178.7375
20
-16.525
0
VERTEX
8
0
70
0
10
178.7375
20
-2.5250000000000004
0
VERTEX
8
0
70
0
10
192.7375
20
-2.5250000000000004
0
VERTEX
8
0
70
0
10
192.7375
20
-16.525
0
VERTEX
8
0
70
0
10
178.7375
20
-16.525
0
SEQEND
0
POLYLINE
8
0
66
1
70
0
0
VERTEX
8
0
70
0
10
197.7875
20
-16.525
0
VERTEX
8
0
70
0
10
197.7875
20
-2.5250000000000004
0
VERTEX
8
0
70
0
10
211.7875
20
-2.5250000000000004
0
VERTEX
8
0
70
0
10
211.7875
20
-16.525
0
VERTEX
8
0
70
0
10
197.7875
20
-16.525
0
SEQEND
0
POLYLINE
8
0
66
1
70
0
0
VERTEX
8
0
70
0
10
216.8375
20
-16.525
0
VERTEX
8
0
70
0
10
216.8375
20
-2.5250000000000004
0
VERTEX
8
0
70
0
10
230.8375
20
-2.5250000000000004
0
VERTEX
8
0
70
0
10
230.8375
20
-16.525
0
VERTEX
8
0
70
0
10
216.8375
20
-16.525
0
SEQEND
0
POLYLINE
8
0
66
1
70
0
0
VERTEX
8
0
70
0
10
235.88750000000002
20
-16.525
0
VERTEX
8
0
70
0
10
235.88750000000002
20
-2.5250000000000004
0
VERTEX
8
0
70
0
10
249.88750000000002
20
-2.5250000000000004
0
VERTEX
8
0
70
0
10
249.88750000000002
20
-16.525
0
VERTEX
8
0
70
0
10
235.88750000000002
20
-16.525
0
SEQEND
0
POLYLINE
8
0
66
1
70
0
0
VERTEX
8
0
70
0
10
259.7
20
-16.525
0
VERTEX
8
0
70
0
10
259.7
20
-2.5250000000000004
0
VERTEX
8
0
70
0
10
273.7
20
-2.5250000000000004
0
VERTEX
8
0
70
0
10
273.7
20
-16.525
0
VERTEX
8
0
70
0
10
259.7
20
-16.525
0
SEQEND
0
POLYLINE
8
0
66
1
70
0
0
VERTEX
8
0
70
0
10
281.13125
20
-16.525
0
VERTEX
8
0
70
0
10
281.13125
20
-2.5250000000000004
0
VERTEX
8
0
70
0
10
295.13125
20
-2.5250000000000004
0
VERTEX
8
0
70
0
10
295.13125
20
-16.525
0
VERTEX
8
0
70
0
10
281.13125
20
-16.525
0
SEQEND
0
POLYLINE
8
0
66
1
70
0
0
VERTEX
8
0
70
0
10
304.94375
20
-16.525
0
VERTEX
8
0
70
0
10
304.94375
20
-2.5250000000000004
0
VERTEX
8
0
70
0
10
318.94375
20
-2.5250000000000004
0
VERTEX
8
0
70
0
10
318.94375
20
-16.525
0
VERTEX
8
0
70
0
10
304.94375
20
-16.525
0
SEQEND
0
POLYLINE
8
0
66
1
70
0
0
VERTEX
8
0
70
0
10
328.75625
20
-16.525
0
VERTEX
8
0
70
0
10
328.75625
20
-2.5250000000000004
0
VERTEX
8
0
70
0
10
342.75625
20
-2.5250000000000004
0
VERTEX
8
0
70
0
10
342.75625
20
-16.525
0
VERTEX
8
0
70
0
10
328.75625
20
-16.525
0
SEQEND
0
POLYLINE
8
0
66
1
70
0
0
VERTEX
8
0
70
0
10
382.38124999999997
20
-7.2250000000000005
0
VERTEX
8
0
70
0
10
382.38124999999997
20
-3.995
0
VERTEX
8
0
70
0
10
389.13124999999997
20
-3.995
0
VERTEX
8
0
70
0
10
389.13124999999997
20
-7.2250000000000005
0
VERTEX
8
0
70
0
10
389.95625
20
-7.2250000000000005
0
VERTEX
8
0
70
0
10
389.95625
20
-10.025
0
VERTEX
8
0
70
0
10
389.13124999999997
20
-10.025
0
VERTEX
8
0
70
0
10
389.13124999999997
20
-16.295
0
VERTEX
8
0
70
0
10
387.40625
20
-16.295
0
VERTEX
8
0
70
0
10
387.40625
20
-17.495
0
VERTEX
8
0
70
0
10
384.10625
20
-17.495
0
VERTEX
8
0
70
0
10
384.10625
20
-16.295
0
VERTEX
8
0
70
0
10
382.38124999999997
20
-16.295
0
VERTEX
8
0
70
0
10
382.38124999999997
20
-11.825
0
VERTEX
8
0
70
0
10
380.85625
20
-11.825
0
VERTEX
8
0
70
0
10
380.85625
20
-16.525
0
VERTEX
8
0
70
0
10
366.85625
20
-16.525
0
VERTEX
8
0
70
0
10
366.85625
20
-11.825
0
VERTEX
8
0
70
0
10
365.33125
20
-11.825
0
VERTEX
8
0
70
0
10
365.33125
20
-16.295
0
VERTEX
8
0
70
0
10
363.60625
20
-16.295
0
VERTEX
8
0
70
0
10
363.60625
20
-17.495
0
VERTEX
8
0
70
0
10
360.30625
20
-17.495
0
VERTEX
8
0
70
0
10
360.30625
20
-16.295
0
VERTEX
8
0
70
0
10
358.58125
20
-16.295
0
VERTEX
8
0
70
0
10
358.58125
20
-10.025
0
VERTEX
8
0
70
0
10
357.75624999999997
20
-10.025
0
VERTEX
8
0
70
0
10
357.75624999999997
20
-7.2250000000000005
0
VERTEX
8
0
70
0
10
358.58125
20
-7.2250000000000005
0
VERTEX
8
0
70
0
10
358.58125
20
-3.995
0
VERTEX
8
0
70
0
10
365.33125
20
-3.995
0
VERTEX
8
0
70
0
10
365.33125
20
-7.2250000000000005
0
VERTEX
8
0
70
0
10
366.85625
20
-7.2250000000000005
0
VERTEX
8
0
70
0
10
366.85625
20
-2.5250000000000004
0
VERTEX
8
0
70
0
10
380.85625
20
-2.5250000000000004
0
VERTEX
8
0
70
0
10
380.85625
20
-7.2250000000000005
0
VERTEX
8
0
70
0
10
382.38124999999997
20
-7.2250000000000005
0
SEQEND
0
POLYLINE
8
0
66
1
70
0
0
VERTEX
8
0
70
0
10
408.33750000000003
20
-15.525
0
VERTEX
8
0
70
0
10
408.33750000000003
20
-3.5250000000000004
0
VERTEX
8
0
70
0
10
420.33750000000003
20
-3.5250000000000004
0
VERTEX
8
0
70
0
10
420.33750000000003
20
-15.525
0
VERTEX
8
0
70
0
10
408.33750000000003
20
-15.525
0
SEQEND
0
POLYLINE
8
0
66
1
70
0
0
VERTEX
8
0
70
0
10
2.5250000000000004
20
-40.3375
0
VERTEX
8
0
70
0
10
2.5250000000000004
20
-26.3375
0
VERTEX
8
0
70
0
10
16.525
20
-26.3375
0
VERTEX
8
0
70
0
10
16.525
20
-40.3375
0
VERTEX
8
0
70
0
10
2.5250000000000004
20
-40.3375
0
SEQEND
0
POLYLINE
8
0
66
1
70
0
0
VERTEX
8
0
70
0
10
26.3375
20
-40.3375
0
VERTEX
8
0
70
0
10
26.3375
20
-26.3375
0
VERTEX
8
0
70
0
10
40.3375
20
-26.3375
0
VERTEX
8
0
70
0
10
40.3375
20
-40.3375
0
VERTEX
8
0
70
0
10
26.3375
20
-40.3375
0
SEQEND
0
POLYLINE
8
0
66
1
70
0
0
VERTEX
8
0
70
0
10
45.3875
20
-40.3375
0
VERTEX
8
0
70
0
10
45.3875
20
-26.3375
0
VERTEX
8
0
70
0
10
59.3875
20
-26.3375
0
VERTEX
8
0
70
0
10
59.3875
20
-40.3375
0
VERTEX
8
0
70
0
10
45.3875
20
-40.3375
0
SEQEND
0
POLYLINE
8
0
66
1
70
0
0
VERTEX
8
0
70
0
10
64.4375
20
-40.3375
0
VERTEX
8
0
70
0
10
64.4375
20
-26.3375
0
VERTEX
8
0
70
0
10
78.4375
20
-26.3375
0
VERTEX
8
0
70
0
10
78.4375
20
-40.3375
0
VERTEX
8
0
70
0
10
64.4375
20
-40.3375
0
SEQEND
0
POLYLINE
8
0
66
1
70
0
0
VERTEX
8
0
70
0
10
83.4875
20
-40.3375
0
VERTEX
8
0
70
0
10
83.4875
20
-26.3375
0
VERTEX
8
0
70
0
10
97.4875
20
-26.3375
0
VERTEX
8
0
70
0
10
97.4875
20
-40.3375
0
VERTEX
8
0
70
0
10
83.4875
20
-40.3375
0
SEQEND
0
POLYLINE
8
0
66
1
70
0
0
VERTEX
8
0
70
0
10
102.53750000000001
20
-40.3375
0
VERTEX
8
0
70
0
10
102.53750000000001
20
-26.3375
0
VERTEX
8
0
70
0
10
116.53750000000001
20
-26.3375
0
VERTEX
8
0
70
0
10
116.53750000000001
20
-40.3375
0
VERTEX
8
0
70
0
10
102.53750000000001
20
-40.3375
0
SEQEND
0
POLYLINE
8
0
66
1
70
0
0
VERTEX
8
0
70
0
10
121.5875
20
-40.3375
0
VERTEX
8
0
70
0
10
121.5875
20
-26.3375
0
VERTEX
8
0
70
0
10
135.5875
20
-26.3375
0
VERTEX
8
0
70
0
10
135.5875
20
-40.3375
0
VERTEX
8
0
70
0
10
121.5875
20
-40.3375
0
SEQEND
0
POLYLINE
8
0
66
1
70
0
0
VERTEX
8
0
70
0
10
140.63750000000002
20
-40.3375
0
VERTEX
8
0
70
0
10
140.63750000000002
20
-26.3375
0
VERTEX
8
0
70
0
10
154.63750000000002
20
-26.3375
0
VERTEX
8
0
70
0
10
154.63750000000002
20
-40.3375
0
VERTEX
8
0
70
0
10
140.63750000000002
20
-40.3375
0
SEQEND
0
POLYLINE
8
0
66
1
70
0
0
VERTEX
8
0
70
0
10
159.6875
20
-40.3375
0
VERTEX
8
0
70
0
10
159.6875
20
-26.3375
0
VERTEX
8
0
70
0
10
173.6875
20
-26.3375
0
VERTEX
8
0
70
0
10
173.6875
20
-40.3375
0
VERTEX
8
0
70
0
10
159.6875
20
-40.3375
0
SEQEND
0
POLYLINE
8
0
66
1
70
0
0
VERTEX
8
0
70
0
10
178.7375
20
-40.3375
0
VERTEX
8
0
70
0
10
178.7375
20
-26.3375
0
VERTEX
8
0
70
0
10
192.7375
20
-26.3375
0
VERTEX
8
0
70
0
10
192.7375
20
-40.3375
0
VERTEX
8
0
70
0
10
178.7375
20
-40.3375
0
SEQEND
0
POLYLINE
8
0
66
1
70
0
0
VERTEX
8
0
70
0
10
197.7875
20
-40.3375
0
VERTEX
8
0
70
0
10
197.7875
20
-26.3375
0
VERTEX
8
0
70
0
10
211.7875
20
-26.3375
0
VERTEX
8
0
70
0
10
211.7875
20
-40.3375
0
VERTEX
8
0
70
0
10
197.7875
20
-40.3375
0
SEQEND
0
POLYLINE
8
0
66
1
70
0
0
VERTEX
8
0
70
0
10
216.8375
20
-40.3375
0
VERTEX
8
0
70
0
10
216.8375
20
-26.3375
0
VERTEX
8
0
70
0
10
230.8375
20
-26.3375
0
VERTEX
8
0
70
0
10
230.8375
20
-40.3375
0
VERTEX
8
0
70
0
10
216.8375
20
-40.3375
0
SEQEND
0
POLYLINE
8
0
66
1
70
0
0
VERTEX
8
0
70
0
10
235.88750000000002
20
-40.3375
0
VERTEX
8
0
70
0
10
235.88750000000002
20
-26.3375
0
VERTEX
8
0
70
0
10
249.88750000000002
20
-26.3375
0
VERTEX
8
0
70
0
10
249.88750000000002
20
-40.3375
0
VERTEX
8
0
70
0
10
235.88750000000002
20
-40.3375
0
SEQEND
0
POLYLINE
8
0
66
1
70
0
0
VERTEX
8
0
70
0
10
264.46250000000003
20
-40.3375
0
VERTEX
8
0
70
0
10
264.46250000000003
20
-26.3375
0
VERTEX
8
0
70
0
10
278.46250000000003
20
-26.3375
0
VERTEX
8
0
70
0
10
278.46250000000003
20
-40.3375
0
VERTEX
8
0
70
0
10
264.46250000000003
20
-40.3375
0
SEQEND
0
POLYLINE
8
0
66
1
70
0
0
VERTEX
8
0
70
0
10
293.0375
20
-40.3375
0
VERTEX
8
0
70
0
10
293.0375
20
-26.3375
0
VERTEX
8
0
70
0
10
307.0375
20
-26.3375
0
VERTEX
8
0
70
0
10
307.0375
20
-40.3375
0
VERTEX
8
0
70
0
10
293.0375
20
-40.3375
0
SEQEND
0
POLYLINE
8
0
66
1
70
0
0
VERTEX
8
0
70
0
10
312.08750000000003
20
-40.3375
0
VERTEX
8
0
70
0
10
312.08750000000003
20
-26.3375
0
VERTEX
8
0
70
0
10
326.08750000000003
20
-26.3375
0
VERTEX
8
0
70
0
10
326.08750000000003
20
-40.3375
0
VERTEX
8
0
70
0
10
312.08750000000003
20
-40.3375
0
SEQEND
0
POLYLINE
8
0
66
1
70
0
0
VERTEX
8
0
70
0
10
331.1375
20
-40.3375
0
VERTEX
8
0
70
0
10
331.1375
20
-26.3375
0
VERTEX
8
0
70
0
10
345.1375
20
-26.3375
0
VERTEX
8
0
70
0
10
345.1375
20
-40.3375
0
VERTEX
8
0
70
0
10
331.1375
20
-40.3375
0
SEQEND
0
POLYLINE
8
0
66
1
70
0
0
VERTEX
8
0
70
0
10
382.38124999999997
20
-31.037499999999998
0
VERTEX
8
0
70
0
10
382.38124999999997
20
-27.807499999999997
0
VERTEX
8
0
70
0
10
389.13124999999997
20
-27.807499999999997
0
VERTEX
8
0
70
0
10
389.13124999999997
20
-31.037499999999998
0
VERTEX
8
0
70
0
10
389.95625
20
-31.037499999999998
0
VERTEX
8
0
70
0
10
389.95625
20
-33.8375
0
VERTEX
8
0
70
0
10
389.13124999999997
20
-33.8375
0
VERTEX
8
0
70
0
10
389.13124999999997
20
-40.1075
0
VERTEX
8
0
70
0
10
387.40625
20
-40.1075
0
VERTEX
8
0
70
0
10
387.40625
20
-41.3075
0
VERTEX
8
0
70
0
10
384.10625
20
-41.3075
0
VERTEX
8
0
70
0
10
384.10625
20
-40.1075
0
VERTEX
8
0
70
0
10
382.38124999999997
20
-40.1075
0
VERTEX
8
0
70
0
10
382.38124999999997
20
-35.637499999999996
0
VERTEX
8
0
70
0
10
380.85625
20
-35.637499999999996
0
VERTEX
8
0
70
0
10
380.85625
20
-40.3375
0
VERTEX
8
0
70
0
10
366.85625
20
-40.3375
0
VERTEX
8
0
70
0
10
366.85625
20
-35.637499999999996
0
VERTEX
8
0
70
0
10
365.33125
20
-35.637499999999996
0
VERTEX
8
0
70
0
10
365.33125
20
-40.1075
0
VERTEX
8
0
70
0
10
363.60625
20
-40.1075
0
VERTEX
8
0
70
0
10
363.60625
20
-41.3075
0
VERTEX
8
0
70
0
10
360.30625
20
-41.3075
0
VERTEX
8
0
70
0
10
360.30625
20
-40.1075
0
VERTEX
8
0
70
0
10
358.58125
20
-40.1075
0
VERTEX
8
0
70
0
10
358.58125
20
-33.8375
0
VERTEX
8
0
70
0
10
357.75624999999997
20
-33.8375
0
VERTEX
8
0
70
0
10
357.75624999999997
20
-31.037499999999998
0
VERTEX
8
0
70
0
10
358.58125
20
-31.037499999999998
0
VERTEX
8
0
70
0
10
358.58125
20
-27.807499999999997
0
VERTEX
8
0
70
0
10
365.33125
20
-27.807499999999997
0
VERTEX
8
0
70
0
10
365.33125
20
-31.037499999999998
0
VERTEX
8
0
70
0
10
366.85625
20
-31.037499999999998
0
VERTEX
8
0
70
0
10
366.85625
20
-26.3375
0
VERTEX
8
0
70
0
10
380.85625
20
-26.3375
0
VERTEX
8
0
70
0
10
380.85625
20
-31.037499999999998
0
VERTEX
8
0
70
0
10
382.38124999999997
20
-31.037499999999998
0
SEQEND
0
POLYLINE
8
0
66
1
70
0
0
VERTEX
8
0
70
0
10
407.33750000000003
20
-40.3375
0
VERTEX
8
0
70
0
10
407.33750000000003
20
-26.3375
0
VERTEX
8
0
70
0
10
421.33750000000003
20
-26.3375
0
VERTEX
8
0
70
0
10
421.33750000000003
20
-40.3375
0
VERTEX
8
0
70
0
10
407.33750000000003
20
-40.3375
0
SEQEND
0
POLYLINE
8
0
66
1
70
0
0
VERTEX
8
0
70
0
10
2.5250000000000004
20
-64.15
0
VERTEX
8
0
70
0
10
2.5250000000000004
20
-50.150000000000006
0
VERTEX
8
0
70
0
10
16.525
20
-50.150000000000006
0
VERTEX
8
0
70
0
10
16.525
20
-64.15
0
VERTEX
8
0
70
0
10
2.5250000000000004
20
-64.15
0
SEQEND
0
POLYLINE
8
0
66
1
70
0
0
VERTEX
8
0
70
0
10
21.575000000000003
20
-64.15
0
VERTEX
8
0
70
0
10
21.575000000000003
20
-50.150000000000006
0
VERTEX
8
0
70
0
10
35.575
20
-50.150000000000006
0
VERTEX
8
0
70
0
10
35.575
20
-64.15
0
VERTEX
8
0
70
0
10
21.575000000000003
20
-64.15
0
SEQEND
0
POLYLINE
8
0
66
1
70
0
0
VERTEX
8
0
70
0
10
40.625
20
-64.15
0
VERTEX
8
0
70
0
10
40.625
20
-50.150000000000006
0
VERTEX
8
0
70
0
10
54.625
20
-50.150000000000006
0
VERTEX
8
0
70
0
10
54.625
20
-64.15
0
VERTEX
8
0
70
0
10
40.625
20
-64.15
0
SEQEND
0
POLYLINE
8
0
66
1
70
0
0
VERTEX
8
0
70
0
10
59.675
20
-64.15
0
VERTEX
8
0
70
0
10
59.675
20
-50.150000000000006
0
VERTEX
8
0
70
0
10
73.675
20
-50.150000000000006
0
VERTEX
8
0
70
0
10
73.675
20
-64.15
0
VERTEX
8
0
70
0
10
59.675
20
-64.15
0
SEQEND
0
POLYLINE
8
0
66
1
70
0
0
VERTEX
8
0
70
0
10
78.72500000000001
20
-64.15
0
VERTEX
8
0
70
0
10
78.72500000000001
20
-50.150000000000006
0
VERTEX
8
0
70
0
10
92.72500000000001
20
-50.150000000000006
0
VERTEX
8
0
70
0
10
92.72500000000001
20
-64.15
0
VERTEX
8
0
70
0
10
78.72500000000001
20
-64.15
0
SEQEND
0
POLYLINE
8
0
66
1
70
0
0
VERTEX
8
0
70
0
10
97.775
20
-64.15
0
VERTEX
8
0
70
0
10
97.775
20
-50.150000000000006
0
VERTEX
8
0
70
0
10
111.775
20
-50.150000000000006
0
VERTEX
8
0
70
0
10
111.775
20
-64.15
0
VERTEX
8
0
70
0
10
97.775
20
-64.15
0
SEQEND
0
POLYLINE
8
0
66
1
70
0
0
VERTEX
8
0
70
0
10
116.825
20
-64.15
0
VERTEX
8
0
70
0
10
116.825
20
-50.150000000000006
0
VERTEX
8
0
70
0
10
130.825
20
-50.150000000000006
0
VERTEX
8
0
70
0
10
130.825
20
-64.15
0
VERTEX
8
0
70
0
10
116.825
20
-64.15
0
SEQEND
0
POLYLINE
8
0
66
1
70
0
0
VERTEX
8
0
70
0
10
135.875
20
-64.15
0
VERTEX
8
0
70
0
10
135.875
20
-50.150000000000006
0
VERTEX
8
0
70
0
10
149.875
20
-50.150000000000006
0
VERTEX
8
0
70
0
10
149.875
20
-64.15
0
VERTEX
8
0
70
0
10
135.875
20
-64.15
0
SEQEND
0
POLYLINE
8
0
66
1
70
0
0
VERTEX
8
0
70
0
10
154.925
20
-64.15
0
VERTEX
8
0
70
0
10
154.925
20
-50.150000000000006
0
VERTEX
8
0
70
0
10
168.925
20
-50.150000000000006
0
VERTEX
8
0
70
0
10
168.925
20
-64.15
0
VERTEX
8
0
70
0
10
154.925
20
-64.15
0
SEQEND
0
POLYLINE
8
0
66
1
70
0
0
VERTEX
8
0
70
0
10
173.975
20
-64.15
0
VERTEX
8
0
70
0
10
173.975
20
-50.150000000000006
0
VERTEX
8
0
70
0
10
187.975
20
-50.150000000000006
0
VERTEX
8
0
70
0
10
187.975
20
-64.15
0
VERTEX
8
0
70
0
10
173.975
20
-64.15
0
SEQEND
0
POLYLINE
8
0
66
1
70
0
0
VERTEX
8
0
70
0
10
193.025
20
-64.15
0
VERTEX
8
0
70
0
10
193.025
20
-50.150000000000006
0
VERTEX
8
0
70
0
10
207.025
20
-50.150000000000006
0
VERTEX
8
0
70
0
10
207.025
20
-64.15
0
VERTEX
8
0
70
0
10
193.025
20
-64.15
0
SEQEND
0
POLYLINE
8
0
66
1
70
0
0
VERTEX
8
0
70
0
10
212.07500000000002
20
-64.15
0
VERTEX
8
0
70
0
10
212.07500000000002
20
-50.150000000000006
0
VERTEX
8
0
70
0
10
226.07500000000002
20
-50.150000000000006
0
VERTEX
8
0
70
0
10
226.07500000000002
20
-64.15
0
VERTEX
8
0
70
0
10
212.07500000000002
20
-64.15
0
SEQEND
0
POLYLINE
8
0
66
1
70
0
0
VERTEX
8
0
70
0
10
231.125
20
-64.15
0
VERTEX
8
0
70
0
10
231.125
20
-50.150000000000006
0
VERTEX
8
0
70
0
10
245.125
20
-50.150000000000006
0
VERTEX
8
0
70
0
10
245.125
20
-64.15
0
VERTEX
8
0
70
0
10
231.125
20
-64.15
0
SEQEND
0
POLYLINE
8
0
66
1
70
0
0
VERTEX
8
0
70
0
10
275.22499999999997
20
-54.85000000000001
0
VERTEX
8
0
70
0
10
275.22499999999997
20
-51.620000000000005
0
VERTEX
8
0
70
0
10
281.97499999999997
20
-51.620000000000005
0
VERTEX
8
0
70
0
10
281.97499999999997
20
-54.85000000000001
0
VERTEX
8
0
70
0
10
282.8
20
-54.85000000000001
0
VERTEX
8
0
70
0
10
282.8
20
-57.650000000000006
0
VERTEX
8
0
70
0
10
281.97499999999997
20
-57.650000000000006
0
VERTEX
8
0
70
0
10
281.97499999999997
20
-63.92
0
VERTEX
8
0
70
0
10
280.25
20
-63.92
0
VERTEX
8
0
70
0
10
280.25
20
-65.12
0
VERTEX
8
0
70
0
10
276.95
20
-65.12
0
VERTEX
8
0
70
0
10
276.95
20
-63.92
0
VERTEX
8
0
70
0
10
275.22499999999997
20
-63.92
0
VERTEX
8
0
70
0
10
275.22499999999997
20
-59.45
0
VERTEX
8
0
70
0
10
273.7
20
-59.45
0
VERTEX
8
0
70
0
10
273.7
20
-64.15
0
VERTEX
8
0
70
0
10
259.7
20
-64.15
0
VERTEX
8
0
70
0
10
259.7
20
-59.45
0
VERTEX
8
0
70
0
10
258.175
20
-59.45
0
VERTEX
8
0
70
0
10
258.175
20
-63.92
0
VERTEX
8
0
70
0
10
256.45
20
-63.92
0
VERTEX
8
0
70
0
10
256.45
20
-65.12
0
VERTEX
8
0
70
0
10
253.14999999999998
20
-65.12
0
VERTEX
8
0
70
0
10
253.14999999999998
20
-63.92
0
VERTEX
8
0
70
0
10
251.42499999999998
20
-63.92
0
VERTEX
8
0
70
0
10
251.42499999999998
20
-57.650000000000006
0
VERTEX
8
0
70
0
10
250.6
20
-57.650000000000006
0
VERTEX
8
0
70
0
10
250.6
20
-54.85000000000001
0
VERTEX
8
0
70
0
10
251.42499999999998
20
-54.85000000000001
0
VERTEX
8
0
70
0
10
251.42499999999998
20
-51.620000000000005
0
VERTEX
8
0
70
0
10
258.175
20
-51.620000000000005
0
VERTEX
8
0
70
0
10
258.175
20
-54.85000000000001
0
VERTEX
8
0
70
0
10
259.7
20
-54.85000000000001
0
VERTEX
8
0
70
0
10
259.7
20
-50.150000000000006
0
VERTEX
8
0
70
0
10
273.7
20
-50.150000000000006
0
VERTEX
8
0
70
0
10
273.7
20
-54.85000000000001
0
VERTEX
8
0
70
0
10
275.22499999999997
20
-54.85000000000001
0
SEQEND
0
POLYLINE
8
0
66
1
70
0
0
VERTEX
8
0
70
0
10
293.0375
20
-64.15
0
VERTEX
8
0
70
0
10
293.0375
20
-50.150000000000006
0
VERTEX
8
0
70
0
10
307.0375
20
-50.150000000000006
0
VERTEX
8
0
70
0
10
307.0375
20
-64.15
0
VERTEX
8
0
70
0
10
293.0375
20
-64.15
0
SEQEND
0
POLYLINE
8
0
66
1
70
0
0
VERTEX
8
0
70
0
10
312.08750000000003
20
-64.15
0
VERTEX
8
0
70
0
10
312.08750000000003
20
-50.150000000000006
0
VERTEX
8
0
70
0
10
326.08750000000003
20
-50.150000000000006
0
VERTEX
8
0
70
0
10
326.08750000000003
20
-64.15
0
VERTEX
8
0
70
0
10
312.08750000000003
20
-64.15
0
SEQEND
0
POLYLINE
8
0
66
1
70
0
0
VERTEX
8
0
70
0
10
331.1375
20
-64.15
0
VERTEX
8
0
70
0
10
331.1375
20
-50.150000000000006
0
VERTEX
8
0
70
0
10
345.1375
20
-50.150000000000006
0
VERTEX
8
0
70
0
10
345.1375
20
-64.15
0
VERTEX
8
0
70
0
10
331.1375
20
-64.15
0
SEQEND
0
POLYLINE
8
0
66
1
70
0
0
VERTEX
8
0
70
0
10
354.95
20
-64.15
0
VERTEX
8
0
70
0
10
354.95
20
-50.150000000000006
0
VERTEX
8
0
70
0
10
368.95
20
-50.150000000000006
0
VERTEX
8
0
70
0
10
368.95
20
-64.15
0
VERTEX
8
0
70
0
10
354.95
20
-64.15
0
SEQEND
0
POLYLINE
8
0
66
1
70
0
0
VERTEX
8
0
70
0
10
374.0
20
-64.15
0
VERTEX
8
0
70
0
10
374.0
20
-50.150000000000006
0
VERTEX
8
0
70
0
10
388.0
20
-50.150000000000006
0
VERTEX
8
0
70
0
10
388.0
20
-64.15
0
VERTEX
8
0
70
0
10
374.0
20
-64.15
0
SEQEND
0
POLYLINE
8
0
66
1
70
0
0
VERTEX
8
0
70
0
10
393.05
20
-64.15
0
VERTEX
8
0
70
0
10
393.05
20
-50.150000000000006
0
VERTEX
8
0
70
0
10
407.05
20
-50.150000000000006
0
VERTEX
8
0
70
0
10
407.05
20
-64.15
0
VERTEX
8
0
70
0
10
393.05
20
-64.15
0
SEQEND
0
POLYLINE
8
0
66
1
70
0
0
VERTEX
8
0
70
0
10
412.1
20
-64.15
0
VERTEX
8
0
70
0
10
412.1
20
-50.150000000000006
0
VERTEX
8
0
70
0
10
426.1
20
-50.150000000000006
0
VERTEX
8
0
70
0
10
426.1
20
-64.15
0
VERTEX
8
0
70
0
10
412.1
20
-64.15
0
SEQEND
0
POLYLINE
8
0
66
1
70
0
0
VERTEX
8
0
70
0
10
7.287500000000001
20
-83.2
0
VERTEX
8
0
70
0
10
7.287500000000001
20
-69.2
0
VERTEX
8
0
70
0
10
21.2875
20
-69.2
0
VERTEX
8
0
70
0
10
21.2875
20
-83.2
0
VERTEX
8
0
70
0
10
7.287500000000001
20
-83.2
0
SEQEND
0
POLYLINE
8
0
66
1
70
0
0
VERTEX
8
0
70
0
10
31.1
20
-83.2
0
VERTEX
8
0
70
0
10
31.1
20
-69.2
0
VERTEX
8
0
70
0
10
45.1
20
-69.2
0
VERTEX
8
0
70
0
10
45.1
20
-83.2
0
VERTEX
8
0
70
0
10
31.1
20
-83.2
0
SEQEND
0
POLYLINE
8
0
66
1
70
0
0
VERTEX
8
0
70
0
10
50.150000000000006
20
-83.2
0
VERTEX
8
0
70
0
10
50.150000000000006
20
-69.2
0
VERTEX
8
0
70
0
10
64.15
20
-69.2
0
VERTEX
8
0
70
0
10
64.15
20
-83.2
0
VERTEX
8
0
70
0
10
50.150000000000006
20
-83.2
0
SEQEND
0
POLYLINE
8
0
66
1
70
0
0
VERTEX
8
0
70
0
10
69.2
20
-83.2
0
VERTEX
8
0
70
0
10
69.2
20
-69.2
0
VERTEX
8
0
70
0
10
83.2
20
-69.2
0
VERTEX
8
0
70
0
10
83.2
20
-83.2
0
VERTEX
8
0
70
0
10
69.2
20
-83.2
0
SEQEND
0
POLYLINE
8
0
66
1
70
0
0
VERTEX
8
0
70
0
10
88.25
20
-83.2
0
VERTEX
8
0
70
0
10
88.25
20
-69.2
0
VERTEX
8
0
70
0
10
102.25
20
-69.2
0
VERTEX
8
0
70
0
10
102.25
20
-83.2
0
VERTEX
8
0
70
0
10
88.25
20
-83.2
0
SEQEND
0
POLYLINE
8
0
66
1
70
0
0
VERTEX
8
0
70
0
10
107.30000000000001
20
-83.2
0
VERTEX
8
0
70
0
10
107.30000000000001
20
-69.2
0
VERTEX
8
0
70
0
10
121.30000000000001
20
-69.2
0
VERTEX
8
0
70
0
10
121.30000000000001
20
-83.2
0
VERTEX
8
0
70
0
10
107.30000000000001
20
-83.2
0
SEQEND
0
POLYLINE
8
0
66
1
70
0
0
VERTEX
8
0
70
0
10
126.35
20
-83.2
0
VERTEX
8
0
70
0
10
126.35
20
-69.2
0
VERTEX
8
0
70
0
10
140.35
20
-69.2
0
VERTEX
8
0
70
0
10
140.35
20
-83.2
0
VERTEX
8
0
70
0
10
126.35
20
-83.2
0
SEQEND
0
POLYLINE
8
0
66
1
70
0
0
VERTEX
8
0
70
0
10
145.4
20
-83.2
0
VERTEX
8
0
70
0
10
145.4
20
-69.2
0
VERTEX
8
0
70
0
10
159.4
20
-69.2
0
VERTEX
8
0
70
0
10
159.4
20
-83.2
0
VERTEX
8
0
70
0
10
145.4
20
-83.2
0
SEQEND
0
POLYLINE
8
0
66
1
70
0
0
VERTEX
8
0
70
0
10
164.45000000000002
20
-83.2
0
VERTEX
8
0
70
0
10
164.45000000000002
20
-69.2
0
VERTEX
8
0
70
0
10
178.45000000000002
20
-69.2
0
VERTEX
8
0
70
0
10
178.45000000000002
20
-83.2
0
VERTEX
8
0
70
0
10
164.45000000000002
20
-83.2
0
SEQEND
0
POLYLINE
8
0
66
1
70
0
0
VERTEX
8
0
70
0
10
183.5
20
-83.2
0
VERTEX
8
0
70
0
10
183.5
20
-69.2
0
VERTEX
8
0
70
0
10
197.5
20
-69.2
0
VERTEX
8
0
70
0
10
197.5
20
-83.2
0
VERTEX
8
0
70
0
10
183.5
20
-83.2
0
SEQEND
0
POLYLINE
8
0
66
1
70
0
0
VERTEX
8
0
70
0
10
202.55
20
-83.2
0
VERTEX
8
0
70
0
10
202.55
20
-69.2
0
VERTEX
8
0
70
0
10
216.55
20
-69.2
0
VERTEX
8
0
70
0
10
216.55
20
-83.2
0
VERTEX
8
0
70
0
10
202.55
20
-83.2
0
SEQEND
0
POLYLINE
8
0
66
1
70
0
0
VERTEX
8
0
70
0
10
221.60000000000002
20
-83.2
0
VERTEX
8
0
70
0
10
221.60000000000002
20
-69.2
0
VERTEX
8
0
70
0
10
235.60000000000002
20
-69.2
0
VERTEX
8
0
70
0
10
235.60000000000002
20
-83.2
0
VERTEX
8
0
70
0
10
221.60000000000002
20
-83.2
0
SEQEND
0
POLYLINE
8
0
66
1
70
0
0
VERTEX
8
0
70
0
10
240.65
20
-83.2
0
VERTEX
8
0
70
0
10
240.65
20
-69.2
0
VERTEX
8
0
70
0
10
254.65
20
-69.2
0
VERTEX
8
0
70
0
10
254.65
20
-83.2
0
VERTEX
8
0
70
0
10
240.65
20
-83.2
0
SEQEND
0
POLYLINE
8
0
66
1
70
0
0
VERTEX
8
0
70
0
10
264.46250000000003
20
-83.2
0
VERTEX
8
0
70
0
10
264.46250000000003
20
-69.2
0
VERTEX
8
0
70
0
10
278.46250000000003
20
-69.2
0
VERTEX
8
0
70
0
10
278.46250000000003
20
-83.2
0
VERTEX
8
0
70
0
10
264.46250000000003
20
-83.2
0
SEQEND
0
POLYLINE
8
0
66
1
70
0
0
VERTEX
8
0
70
0
10
293.0375
20
-83.2
0
VERTEX
8
0
70
0
10
293.0375
20
-69.2
0
VERTEX
8
0
70
0
10
307.0375
20
-69.2
0
VERTEX
8
0
70
0
10
307.0375
20
-83.2
0
VERTEX
8
0
70
0
10
293.0375
20
-83.2
0
SEQEND
0
POLYLINE
8
0
66
1
70
0
0
VERTEX
8
0
70
0
10
312.08750000000003
20
-83.2
0
VERTEX
8
0
70
0
10
312.08750000000003
20
-69.2
0
VERTEX
8
0
70
0
10
326.08750000000003
20
-69.2
0
VERTEX
8
0
70
0
10
326.08750000000003
20
-83.2
0
VERTEX
8
0
70
0
10
312.08750000000003
20
-83.2
0
SEQEND
0
POLYLINE
8
0
66
1
70
0
0
VERTEX
8
0
70
0
10
331.1375
20
-83.2
0
VERTEX
8
0
70
0
10
331.1375
20
-69.2
0
VERTEX
8
0
70
0
10
345.1375
20
-69.2
0
VERTEX
8
0
70
0
10
345.1375
20
-83.2
0
VERTEX
8
0
70
0
10
331.1375
20
-83.2
0
SEQEND
0
POLYLINE
8
0
66
1
70
0
0
VERTEX
8
0
70
0
10
354.95
20
-83.2
0
VERTEX
8
0
70
0
10
354.95
20
-69.2
0
VERTEX
8
0
70
0
10
368.95
20
-69.2
0
VERTEX
8
0
70
0
10
368.95
20
-83.2
0
VERTEX
8
0
70
0
10
354.95
20
-83.2
0
SEQEND
0
POLYLINE
8
0
66
1
70
0
0
VERTEX
8
0
70
0
10
374.0
20
-83.2
0
VERTEX
8
0
70
0
10
374.0
20
-69.2
0
VERTEX
8
0
70
0
10
388.0
20
-69.2
0
VERTEX
8
0
70
0
10
388.0
20
-83.2
0
VERTEX
8
0
70
0
10
374.0
20
-83.2
0
SEQEND
0
POLYLINE
8
0
66
1
70
0
0
VERTEX
8
0
70
0
10
393.05
20
-83.2
0
VERTEX
8
0
70
0
10
393.05
20
-69.2
0
VERTEX
8
0
70
0
10
407.05
20
-69.2
0
VERTEX
8
0
70
0
10
407.05
20
-83.2
0
VERTEX
8
0
70
0
10
393.05
20
-83.2
0
SEQEND
0
POLYLINE
8
0
66
1
70
0
0
VERTEX
8
0
70
0
10
416.8
20
-77.2
0
VERTEX
8
0
70
0
10
413.57000000000005
20
-77.2
0
VERTEX
8
0
70
0
10
413.57000000000005
20
-70.45
0
VERTEX
8
0
70
0
10
416.8
20
-70.45
0
VERTEX
8
0
70
0
10
416.8
20
-69.625
0
VERTEX
8
0
70
0
10
419.6
20
-69.625
0
VERTEX
8
0
70
0
10
419.6
20
-70.45
0
VERTEX
8
0
70
0
10
425.87
20
-70.45
0
VERTEX
8
0
70
0
10
425.87
20
-72.17500000000001
0
VERTEX
8
0
70
0
10
427.07000000000005
20
-72.17500000000001
0
VERTEX
8
0
70
0
10
427.07000000000005
20
-75.47500000000001
0
VERTEX
8
0
70
0
10
425.87
20
-75.47500000000001
0
VERTEX
8
0
70
0
10
425.87
20
-77.2
0
VERTEX
8
0
70
0
10
421.40000000000003
20
-77.2
0
VERTEX
8
0
70
0
10
421.40000000000003
20
-78.72500000000001
0
VERTEX
8
0
70
0
10
426.1
20
-78.72500000000001
0
VERTEX
8
0
70
0
10
426.1
20
-92.72500000000001
0
VERTEX
8
0
70
0
10
421.40000000000003
20
-92.72500000000001
0
VERTEX
8
0
70
0
10
421.40000000000003
20
-94.25000000000001
0
VERTEX
8
0
70
0
10
425.87
20
-94.25000000000001
0
VERTEX
8
0
70
0
10
425.87
20
-95.97500000000001
0
VERTEX
8
0
70
0
10
427.07000000000005
20
-95.97500000000001
0
VERTEX
8
0
70
0
10
427.07000000000005
20
-99.275
0
VERTEX
8
0
70
0
10
425.87
20
-99.275
0
VERTEX
8
0
70
0
10
425.87
20
-101.00000000000001
0
VERTEX
8
0
70
0
10
419.6
20
-101.00000000000001
0
VERTEX
8
0
70
0
10
419.6
20
-101.82500000000002
0
VERTEX
8
0
70
0
10
416.8
20
-101.82500000000002
0
VERTEX
8
0
70
0
10
416.8
20
-101.00000000000001
0
VERTEX
8
0
70
0
10
413.57000000000005
20
-101.00000000000001
0
VERTEX
8
0
70
0
10
413.57000000000005
20
-94.25000000000001
0
VERTEX
8
0
70
0
10
416.8
20
-94.25000000000001
0
VERTEX
8
0
70
0
10
416.8
20
-92.72500000000001
0
VERTEX
8
0
70
0
10
412.1
20
-92.72500000000001
0
VERTEX
8
0
70
0
10
412.1
20
-78.72500000000001
0
VERTEX
8
0
70
0
10
416.8
20
-78.72500000000001
0
VERTEX
8
0
70
0
10
416.8
20
-77.2
0
SEQEND
0
POLYLINE
8
0
66
1
70
0
0
VERTEX
8
0
70
0
10
9.66875
20
-102.25
0
VERTEX
8
0
70
0
10
9.66875
20
-88.25
0
VERTEX
8
0
70
0
10
23.66875
20
-88.25
0
VERTEX
8
0
70
0
10
23.66875
20
-102.25
0
VERTEX
8
0
70
0
10
9.66875
20
-102.25
0
SEQEND
0
POLYLINE
8
0
66
1
70
0
0
VERTEX
8
0
70
0
10
35.862500000000004
20
-102.25
0
VERTEX
8
0
70
0
10
35.862500000000004
20
-88.25
0
VERTEX
8
0
70
0
10
49.862500000000004
20
-88.25
0
VERTEX
8
0
70
0
10
49.862500000000004
20
-102.25
0
VERTEX
8
0
70
0
10
35.862500000000004
20
-102.25
0
SEQEND
0
POLYLINE
8
0
66
1
70
0
0
VERTEX
8
0
70
0
10
54.9125
20
-102.25
0
VERTEX
8
0
70
0
10
54.9125
20
-88.25
0
VERTEX
8
0
70
0
10
68.9125
20
-88.25
0
VERTEX
8
0
70
0
10
68.9125
20
-102.25
0
VERTEX
8
0
70
0
10
54.9125
20
-102.25
0
SEQEND
0
POLYLINE
8
0
66
1
70
0
0
VERTEX
8
0
70
0
10
73.9625
20
-102.25
0
VERTEX
8
0
70
0
10
73.9625
20
-88.25
0
VERTEX
8
0
70
0
10
87.9625
20
-88.25
0
VERTEX
8
0
70
0
10
87.9625
20
-102.25
0
VERTEX
8
0
70
0
10
73.9625
20
-102.25
0
SEQEND
0
POLYLINE
8
0
66
1
70
0
0
VERTEX
8
0
70
0
10
93.0125
20
-102.25
0
VERTEX
8
0
70
0
10
93.0125
20
-88.25
0
VERTEX
8
0
70
0
10
107.0125
20
-88.25
0
VERTEX
8
0
70
0
10
107.0125
20
-102.25
0
VERTEX
8
0
70
0
10
93.0125
20
-102.25
0
SEQEND
0
POLYLINE
8
0
66
1
70
0
0
VERTEX
8
0
70
0
10
112.0625
20
-102.25
0
VERTEX
8
0
70
0
10
112.0625
20
-88.25
0
VERTEX
8
0
70
0
10
126.0625
20
-88.25
0
VERTEX
8
0
70
0
10
126.0625
20
-102.25
0
VERTEX
8
0
70
0
10
112.0625
20
-102.25
0
SEQEND
0
POLYLINE
8
0
66
1
70
0
0
VERTEX
8
0
70
0
10
131.1125
20
-102.25
0
VERTEX
8
0
70
0
10
131.1125
20
-88.25
0
VERTEX
8
0
70
0
10
145.1125
20
-88.25
0
VERTEX
8
0
70
0
10
145.1125
20
-102.25
0
VERTEX
8
0
70
0
10
131.1125
20
-102.25
0
SEQEND
0
POLYLINE
8
0
66
1
70
0
0
VERTEX
8
0
70
0
10
150.1625
20
-102.25
0
VERTEX
8
0
70
0
10
150.1625
20
-88.25
0
VERTEX
8
0
70
0
10
164.1625
20
-88.25
0
VERTEX
8
0
70
0
10
164.1625
20
-102.25
0
VERTEX
8
0
70
0
10
150.1625
20
-102.25
0
SEQEND
0
POLYLINE
8
0
66
1
70
0
0
VERTEX
8
0
70
0
10
169.2125
20
-102.25
0
VERTEX
8
0
70
0
10
169.2125
20
-88.25
0
VERTEX
8
0
70
0
10
183.2125
20
-88.25
0
VERTEX
8
0
70
0
10
183.2125
20
-102.25
0
VERTEX
8
0
70
0
10
169.2125
20
-102.25
0
SEQEND
0
POLYLINE
8
0
66
1
70
0
0
VERTEX
8
0
70
0
10
188.26250000000002
20
-102.25
0
VERTEX
8
0
70
0
10
188.26250000000002
20
-88.25
0
VERTEX
8
0
70
0
10
202.26250000000002
20
-88.25
0
VERTEX
8
0
70
0
10
202.26250000000002
20
-102.25
0
VERTEX
8
0
70
0
10
188.26250000000002
20
-102.25
0
SEQEND
0
POLYLINE
8
0
66
1
70
0
0
VERTEX
8
0
70
0
10
207.3125
20
-102.25
0
VERTEX
8
0
70
0
10
207.3125
20
-88.25
0
VERTEX
8
0
70
0
10
221.3125
20
-88.25
0
VERTEX
8
0
70
0
10
221.3125
20
-102.25
0
VERTEX
8
0
70
0
10
207.3125
20
-102.25
0
SEQEND
0
POLYLINE
8
0
66
1
70
0
0
VERTEX
8
0
70
0
10
226.3625
20
-102.25
0
VERTEX
8
0
70
0
10
226.3625
20
-88.25
0
VERTEX
8
0
70
0
10
240.3625
20
-88.25
0
VERTEX
8
0
70
0
10
240.3625
20
-102.25
0
VERTEX
8
0
70
0
10
226.3625
20
-102.25
0
SEQEND
0
POLYLINE
8
0
66
1
70
0
0
VERTEX
8
0
70
0
10
272.84375
20
-92.95
0
VERTEX
8
0
70
0
10
272.84375
20
-89.72
0
VERTEX
8
0
70
0
10
279.59375
20
-89.72
0
VERTEX
8
0
70
0
10
279.59375
20
-92.95
0
VERTEX
8
0
70
0
10
280.41875000000005
20
-92.95
0
VERTEX
8
0
70
0
10
280.41875000000005
20
-95.75
0
VERTEX
8
0
70
0
10
279.59375
20
-95.75
0
VERTEX
8
0
70
0
10
279.59375
20
-102.02
0
VERTEX
8
0
70
0
10
277.86875000000003
20
-102.02
0
VERTEX
8
0
70
0
10
277.86875000000003
20
-103.22
0
VERTEX
8
0
70
0
10
274.56875
20
-103.22
0
VERTEX
8
0
70
0
10
274.56875
20
-102.02
0
VERTEX
8
0
70
0
10
272.84375
20
-102.02
0
VERTEX
8
0
70
0
10
272.84375
20
-97.55
0
VERTEX
8
0
70
0
10
271.31875
20
-97.55
0
VERTEX
8
0
70
0
10
271.31875
20
-102.25
0
VERTEX
8
0
70
0
10
257.31875
20
-102.25
0
VERTEX
8
0
70
0
10
257.31875
20
-97.55
0
VERTEX
8
0
70
0
10
255.79375000000002
20
-97.55
0
VERTEX
8
0
70
0
10
255.79375000000002
20
-102.02
0
VERTEX
8
0
70
0
10
254.06875000000002
20
-102.02
0
VERTEX
8
0
70
0
10
254.06875000000002
20
-103.22
0
VERTEX
8
0
70
0
10
250.76875
20
-103.22
0
VERTEX
8
0
70
0
10
250.76875
20
-102.02
0
VERTEX
8
0
70
0
10
249.04375000000002
20
-102.02
0
VERTEX
8
0
70
0
10
249.04375000000002
20
-95.75
0
VERTEX
8
0
70
0
10
248.21875000000003
20
-95.75
0
VERTEX
8
0
70
0
10
248.21875000000003
20
-92.95
0
VERTEX
8
0
70
0
10
249.04375000000002
20
-92.95
0
VERTEX
8
0
70
0
10
249.04375000000002
20
-89.72
0
VERTEX
8
0
70
0
10
255.79375000000002
20
-89.72
0
VERTEX
8
0
70
0
10
255.79375000000002
20
-92.95
0
VERTEX
8
0
70
0
10
257.31875
20
-92.95
0
VERTEX
8
0
70
0
10
257.31875
20
-88.25
0
VERTEX
8
0
70
0
10
271.31875
20
-88.25
0
VERTEX
8
0
70
0
10
271.31875
20
-92.95
0
VERTEX
8
0
70
0
10
272.84375
20
-92.95
0
SEQEND
0
POLYLINE
8
0
66
1
70
0
0
VERTEX
8
0
70
0
10
300.0375
20
-102.25
0
VERTEX
8
0
70
0
10
300.0375
20
-88.25
0
VERTEX
8
0
70
0
10
338.13750000000005
20
-88.25
0
VERTEX
8
0
70
0
10
338.13750000000005
20
-102.25
0
VERTEX
8
0
70
0
10
300.0375
20
-102.25
0
SEQEND
0
POLYLINE
8
0
66
1
70
0
0
VERTEX
8
0
70
0
10
354.95
20
-102.25
0
VERTEX
8
0
70
0
10
354.95
20
-88.25
0
VERTEX
8
0
70
0
10
368.95
20
-88.25
0
VERTEX
8
0
70
0
10
368.95
20
-102.25
0
VERTEX
8
0
70
0
10
354.95
20
-102.25
0
SEQEND
0
POLYLINE
8
0
66
1
70
0
0
VERTEX
8
0
70
0
10
374.0
20
-102.25
0
VERTEX
8
0
70
0
10
374.0
20
-88.25
0
VERTEX
8
0
70
0
10
388.0
20
-88.25
0
VERTEX
8
0
70
0
10
388.0
20
-102.25
0
VERTEX
8
0
70
0
10
374.0
20
-102.25
0
SEQEND
0
POLYLINE
8
0
66
1
70
0
0
VERTEX
8
0
70
0
10
393.05
20
-102.25
0
VERTEX
8
0
70
0
10
393.05
20
-88.25
0
VERTEX
8
0
70
0
10
407.05
20
-88.25
0
VERTEX
8
0
70
0
10
407.05
20
-102.25
0
VERTEX
8
0
70
0
10
393.05
20
-102.25
0
SEQEND
0
POLYLINE
8
0
66
1
70
0
0
VERTEX
8
0
70
0
10
29.956250000000004
20
-112.00000000000001
0
VERTEX
8
0
70
0
10
29.956250000000004
20
-108.77000000000001
0
VERTEX
8
0
70
0
10
36.706250000000004
20
-108.77000000000001
0
VERTEX
8
0
70
0
10
36.706250000000004
20
-112.00000000000001
0
VERTEX
8
0
70
0
10
37.53125
20
-112.00000000000001
0
VERTEX
8
0
70
0
10
37.53125
20
-114.80000000000001
0
VERTEX
8
0
70
0
10
36.706250000000004
20
-114.80000000000001
0
VERTEX
8
0
70
0
10
36.706250000000004
20
-121.07000000000001
0
VERTEX
8
0
70
0
10
34.98125
20
-121.07000000000001
0
VERTEX
8
0
70
0
10
34.98125
20
-122.27000000000001
0
VERTEX
8
0
70
0
10
31.681250000000002
20
-122.27000000000001
0
VERTEX
8
0
70
0
10
31.681250000000002
20
-121.07000000000001
0
VERTEX
8
0
70
0
10
29.956250000000004
20
-121.07000000000001
0
VERTEX
8
0
70
0
10
29.956250000000004
20
-116.60000000000001
0
VERTEX
8
0
70
0
10
28.431250000000002
20
-116.60000000000001
0
VERTEX
8
0
70
0
10
28.431250000000002
20
-121.30000000000001
0
VERTEX
8
0
70
0
10
14.431250000000002
20
-121.30000000000001
0
VERTEX
8
0
70
0
10
14.431250000000002
20
-116.60000000000001
0
VERTEX
8
0
70
0
10
12.906250000000002
20
-116.60000000000001
0
VERTEX
8
0
70
0
10
12.906250000000002
20
-121.07000000000001
0
VERTEX
8
0
70
0
10
11.181250000000002
20
-121.07000000000001
0
VERTEX
8
0
70
0
10
11.181250000000002
20
-122.27000000000001
0
VERTEX
8
0
70
0
10
7.881250000000001
20
-122.27000000000001
0
VERTEX
8
0
70
0
10
7.881250000000001
20
-121.07000000000001
0
VERTEX
8
0
70
0
10
6.156250000000002
20
-121.07000000000001
0
VERTEX
8
0
70
0
10
6.156250000000002
20
-114.80000000000001
0
VERTEX
8
0
70
0
10
5.331250000000001
20
-114.80000000000001
0
VERTEX
8
0
70
0
10
5.331250000000001
20
-112.00000000000001
0
VERTEX
8
0
70
0
10
6.156250000000002
20
-112.00000000000001
0
VERTEX
8
0
70
0
10
6.156250000000002
20
-108.77000000000001
0
VERTEX
8
0
70
0
10
12.906250000000002
20
-108.77000000000001
0
VERTEX
8
0
70
0
10
12.906250000000002
20
-112.00000000000001
0
VERTEX
8
0
70
0
10
14.431250000000002
20
-112.00000000000001
0
VERTEX
8
0
70
0
10
14.431250000000002
20
-107.30000000000001
0
VERTEX
8
0
70
0
10
28.431250000000002
20
-107.30000000000001
0
VERTEX
8
0
70
0
10
28.431250000000002
20
-112.00000000000001
0
VERTEX
8
0
70
0
10
29.956250000000004
20
-112.00000000000001
0
SEQEND
0
POLYLINE
8
0
66
1
70
0
0
VERTEX
8
0
70
0
10
45.3875
20
-121.30000000000001
0
VERTEX
8
0
70
0
10
45.3875
20
-107.30000000000001
0
VERTEX
8
0
70
0
10
59.3875
20
-107.30000000000001
0
VERTEX
8
0
70
0
10
59.3875
20
-121.30000000000001
0
VERTEX
8
0
70
0
10
45.3875
20
-121.30000000000001
0
SEQEND
0
POLYLINE
8
0
66
1
70
0
0
VERTEX
8
0
70
0
10
64.4375
20
-121.30000000000001
0
VERTEX
8
0
70
0
10
64.4375
20
-107.30000000000001
0
VERTEX
8
0
70
0
10
78.4375
20
-107.30000000000001
0
VERTEX
8
0
70
0
10
78.4375
20
-121.30000000000001
0
VERTEX
8
0
70
0
10
64.4375
20
-121.30000000000001
0
SEQEND
0
POLYLINE
8
0
66
1
70
0
0
VERTEX
8
0
70
0
10
83.4875
20
-121.30000000000001
0
VERTEX
8
0
70
0
10
83.4875
20
-107.30000000000001
0
VERTEX
8
0
70
0
10
97.4875
20
-107.30000000000001
0
VERTEX
8
0
70
0
10
97.4875
20
-121.30000000000001
0
VERTEX
8
0
70
0
10
83.4875
20
-121.30000000000001
0
SEQEND
0
POLYLINE
8
0
66
1
70
0
0
VERTEX
8
0
70
0
10
102.53750000000001
20
-121.30000000000001
0
VERTEX
8
0
70
0
10
102.53750000000001
20
-107.30000000000001
0
VERTEX
8
0
70
0
10
116.53750000000001
20
-107.30000000000001
0
VERTEX
8
0
70
0
10
116.53750000000001
20
-121.30000000000001
0
VERTEX
8
0
70
0
10
102.53750000000001
20
-121.30000000000001
0
SEQEND
0
POLYLINE
8
0
66
1
70
0
0
VERTEX
8
0
70
0
10
121.5875
20
-121.30000000000001
0
VERTEX
8
0
70
0
10
121.5875
20
-107.30000000000001
0
VERTEX
8
0
70
0
10
135.5875
20
-107.30000000000001
0
VERTEX
8
0
70
0
10
135.5875
20
-121.30000000000001
0
VERTEX
8
0
70
0
10
121.5875
20
-121.30000000000001
0
SEQEND
0
POLYLINE
8
0
66
1
70
0
0
VERTEX
8
0
70
0
10
140.63750000000002
20
-121.30000000000001
0
VERTEX
8
0
70
0
10
140.63750000000002
20
-107.30000000000001
0
VERTEX
8
0
70
0
10
154.63750000000002
20
-107.30000000000001
0
VERTEX
8
0
70
0
10
154.63750000000002
20
-121.30000000000001
0
VERTEX
8
0
70
0
10
140.63750000000002
20
-121.30000000000001
0
SEQEND
0
POLYLINE
8
0
66
1
70
0
0
VERTEX
8
0
70
0
10
159.6875
20
-121.30000000000001
0
VERTEX
8
0
70
0
10
159.6875
20
-107.30000000000001
0
VERTEX
8
0
70
0
10
173.6875
20
-107.30000000000001
0
VERTEX
8
0
70
0
10
173.6875
20
-121.30000000000001
0
VERTEX
8
0
70
0
10
159.6875
20
-121.30000000000001
0
SEQEND
0
POLYLINE
8
0
66
1
70
0
0
VERTEX
8
0
70
0
10
178.7375
20
-121.30000000000001
0
VERTEX
8
0
70
0
10
178.7375
20
-107.30000000000001
0
VERTEX
8
0
70
0
10
192.7375
20
-107.30000000000001
0
VERTEX
8
0
70
0
10
192.7375
20
-121.30000000000001
0
VERTEX
8
0
70
0
10
178.7375
20
-121.30000000000001
0
SEQEND
0
POLYLINE
8
0
66
1
70
0
0
VERTEX
8
0
70
0
10
197.7875
20
-121.30000000000001
0
VERTEX
8
0
70
0
10
197.7875
20
-107.30000000000001
0
VERTEX
8
0
70
0
10
211.7875
20
-107.30000000000001
0
VERTEX
8
0
70
0
10
211.7875
20
-121.30000000000001
0
VERTEX
8
0
70
0
10
197.7875
20
-121.30000000000001
0
SEQEND
0
POLYLINE
8
0
66
1
70
0
0
VERTEX
8
0
70
0
10
216.8375
20
-121.30000000000001
0
VERTEX
8
0
70
0
10
216.8375
20
-107.30000000000001
0
VERTEX
8
0
70
0
10
230.8375
20
-107.30000000000001
0
VERTEX
8
0
70
0
10
230.8375
20
-121.30000000000001
0
VERTEX
8
0
70
0
10
216.8375
20
-121.30000000000001
0
SEQEND
0
POLYLINE
8
0
66
1
70
0
0
VERTEX
8
0
70
0
10
268.08125
20
-112.00000000000001
0
VERTEX
8
0
70
0
10
268.08125
20
-108.77000000000001
0
VERTEX
8
0
70
0
10
274.83125
20
-108.77000000000001
0
VERTEX
8
0
70
0
10
274.83125
20
-112.00000000000001
0
VERTEX
8
0
70
0
10
275.65625000000006
20
-112.00000000000001
0
VERTEX
8
0
70
0
10
275.65625000000006
20
-114.80000000000001
0
VERTEX
8
0
70
0
10
274.83125
20
-114.80000000000001
0
VERTEX
8
0
70
0
10
274.83125
20
-121.07000000000001
0
VERTEX
8
0
70
0
10
273.10625000000005
20
-121.07000000000001
0
VERTEX
8
0
70
0
10
273.10625000000005
20
-122.27000000000001
0
VERTEX
8
0
70
0
10
269.80625000000003
20
-122.27000000000001
0
VERTEX
8
0
70
0
10
269.80625000000003
20
-121.07000000000001
0
VERTEX
8
0
70
0
10
268.08125
20
-121.07000000000001
0
VERTEX
8
0
70
0
10
268.08125
20
-116.60000000000001
0
VERTEX
8
0
70
0
10
266.55625000000003
20
-116.60000000000001
0
VERTEX
8
0
70
0
10
266.55625000000003
20
-121.30000000000001
0
VERTEX
8
0
70
0
10
252.55625000000003
20
-121.30000000000001
0
VERTEX
8
0
70
0
10
252.55625000000003
20
-116.60000000000001
0
VERTEX
8
0
70
0
10
251.03125000000003
20
-116.60000000000001
0
VERTEX
8
0
70
0
10
251.03125000000003
20
-121.07000000000001
0
VERTEX
8
0
70
0
10
249.30625000000003
20
-121.07000000000001
0
VERTEX
8
0
70
0
10
249.30625000000003
20
-122.27000000000001
0
VERTEX
8
0
70
0
10
246.00625000000002
20
-122.27000000000001
0
VERTEX
8
0
70
0
10
246.00625000000002
20
-121.07000000000001
0
VERTEX
8
0
70
0
10
244.28125000000003
20
-121.07000000000001
0
VERTEX
8
0
70
0
10
244.28125000000003
20
-114.80000000000001
0
VERTEX
8
0
70
0
10
243.45625000000004
20
-114.80000000000001
0
VERTEX
8
0
70
0
10
243.45625000000004
20
-112.00000000000001
0
VERTEX
8
0
70
0
10
244.28125000000003
20
-112.00000000000001
0
VERTEX
8
0
70
0
10
244.28125000000003
20
-108.77000000000001
0
VERTEX
8
0
70
0
10
251.03125000000003
20
-108.77000000000001
0
VERTEX
8
0
70
0
10
251.03125000000003
20
-112.00000000000001
0
VERTEX
8
0
70
0
10
252.55625000000003
20
-112.00000000000001
0
VERTEX
8
0
70
0
10
252.55625000000003
20
-107.30000000000001
0
VERTEX
8
0
70
0
10
266.55625000000003
20
-107.30000000000001
0
VERTEX
8
0
70
0
10
266.55625000000003
20
-112.00000000000001
0
VERTEX
8
0
70
0
10
268.08125
20
-112.00000000000001
0
SEQEND
0
POLYLINE
8
0
66
1
70
0
0
VERTEX
8
0
70
0
10
293.0375
20
-121.30000000000001
0
VERTEX
8
0
70
0
10
293.0375
20
-107.30000000000001
0
VERTEX
8
0
70
0
10
307.0375
20
-107.30000000000001
0
VERTEX
8
0
70
0
10
307.0375
20
-121.30000000000001
0
VERTEX
8
0
70
0
10
293.0375
20
-121.30000000000001
0
SEQEND
0
POLYLINE
8
0
66
1
70
0
0
VERTEX
8
0
70
0
10
312.08750000000003
20
-121.30000000000001
0
VERTEX
8
0
70
0
10
312.08750000000003
20
-107.30000000000001
0
VERTEX
8
0
70
0
10
326.08750000000003
20
-107.30000000000001
0
VERTEX
8
0
70
0
10
326.08750000000003
20
-121.30000000000001
0
VERTEX
8
0
70
0
10
312.08750000000003
20
-121.30000000000001
0
SEQEND
0
POLYLINE
8
0
66
1
70
0
0
VERTEX
8
0
70
0
10
331.1375
20
-121.30000000000001
0
VERTEX
8
0
70
0
10
331.1375
20
-107.30000000000001
0
VERTEX
8
0
70
0
10
345.1375
20
-107.30000000000001
0
VERTEX
8
0
70
0
10
345.1375
20
-121.30000000000001
0
VERTEX
8
0
70
0
10
331.1375
20
-121.30000000000001
0
SEQEND
0
POLYLINE
8
0
66
1
70
0
0
VERTEX
8
0
70
0
10
354.95
20
-121.30000000000001
0
VERTEX
8
0
70
0
10
354.95
20
-107.30000000000001
0
VERTEX
8
0
70
0
10
368.95
20
-107.30000000000001
0
VERTEX
8
0
70
0
10
368.95
20
-121.30000000000001
0
VERTEX
8
0
70
0
10
354.95
20
-121.30000000000001
0
SEQEND
0
POLYLINE
8
0
66
1
70
0
0
VERTEX
8
0
70
0
10
374.0
20
-121.30000000000001
0
VERTEX
8
0
70
0
10
374.0
20
-107.30000000000001
0
VERTEX
8
0
70
0
10
388.0
20
-107.30000000000001
0
VERTEX
8
0
70
0
10
388.0
20
-121.30000000000001
0
VERTEX
8
0
70
0
10
374.0
20
-121.30000000000001
0
SEQEND
0
POLYLINE
8
0
66
1
70
0
0
VERTEX
8
0
70
0
10
393.05
20
-121.30000000000001
0
VERTEX
8
0
70
0
10
393.05
20
-107.30000000000001
0
VERTEX
8
0
70
0
10
407.05
20
-107.30000000000001
0
VERTEX
8
0
70
0
10
407.05
20
-121.30000000000001
0
VERTEX
8
0
70
0
10
393.05
20
-121.30000000000001
0
SEQEND
0
POLYLINE
8
0
66
1
70
0
0
VERTEX
8
0
70
0
10
416.8
20
-115.3
0
VERTEX
8
0
70
0
10
413.57000000000005
20
-115.3
0
VERTEX
8
0
70
0
10
413.57000000000005
20
-108.55
0
VERTEX
8
0
70
0
10
416.8
20
-108.55
0
VERTEX
8
0
70
0
10
416.8
20
-107.725
0
VERTEX
8
0
70
0
10
419.6
20
-107.725
0
VERTEX
8
0
70
0
10
419.6
20
-108.55
0
VERTEX
8
0
70
0
10
425.87
20
-108.55
0
VERTEX
8
0
70
0
10
425.87
20
-110.275
0
VERTEX
8
0
70
0
10
427.07000000000005
20
-110.275
0
VERTEX
8
0
70
0
10
427.07000000000005
20
-113.575
0
VERTEX
8
0
70
0
10
425.87
20
-113.575
0
VERTEX
8
0
70
0
10
425.87
20
-115.3
0
VERTEX
8
0
70
0
10
421.40000000000003
20
-115.3
0
VERTEX
8
0
70
0
10
421.40000000000003
20
-116.825
0
VERTEX
8
0
70
0
10
426.1
20
-116.825
0
VERTEX
8
0
70
0
10
426.1
20
-130.825
0
VERTEX
8
0
70
0
10
421.40000000000003
20
-130.825
0
VERTEX
8
0
70
0
10
421.40000000000003
20
-132.35
0
VERTEX
8
0
70
0
10
425.87
20
-132.35
0
VERTEX
8
0
70
0
10
425.87
20
-134.075
0
VERTEX
8
0
70
0
10
427.07000000000005
20
-134.075
0
VERTEX
8
0
70
0
10
427.07000000000005
20
-137.375
0
VERTEX
8
0
70
0
10
425.87
20
-137.375
0
VERTEX
8
0
70
0
10
425.87
20
-139.1
0
VERTEX
8
0
70
0
10
419.6
20
-139.1
0
VERTEX
8
0
70
0
10
419.6
20
-139.925
0
VERTEX
8
0
70
0
10
416.8
20
-139.925
0
VERTEX
8
0
70
0
10
416.8
20
-139.1
0
VERTEX
8
0
70
0
10
413.57000000000005
20
-139.1
0
VERTEX
8
0
70
0
10
413.57000000000005
20
-132.35
0
VERTEX
8
0
70
0
10
416.8
20
-132.35
0
VERTEX
8
0
70
0
10
416.8
20
-130.825
0
VERTEX
8
0
70
0
10
412.1
20
-130.825
0
VERTEX
8
0
70
0
10
412.1
20
-116.825
0
VERTEX
8
0
70
0
10
416.8
20
-116.825
0
VERTEX
8
0
70
0
10
416.8
20
-115.3
0
SEQEND
0
POLYLINE
8
0
66
1
70
0
0
VERTEX
8
0
70
0
10
4.90625
20
-140.35
0
VERTEX
8
0
70
0
10
4.90625
20
-126.35
0
VERTEX
8
0
70
0
10
18.90625
20
-126.35
0
VERTEX
8
0
70
0
10
18.90625
20
-140.35
0
VERTEX
8
0
70
0
10
4.90625
20
-140.35
0
SEQEND
0
POLYLINE
8
0
66
1
70
0
0
VERTEX
8
0
70
0
10
28.71875
20
-140.35
0
VERTEX
8
0
70
0
10
28.71875
20
-126.35
0
VERTEX
8
0
70
0
10
42.71875
20
-126.35
0
VERTEX
8
0
70
0
10
42.71875
20
-140.35
0
VERTEX
8
0
70
0
10
28.71875
20
-140.35
0
SEQEND
0
POLYLINE
8
0
66
1
70
0
0
VERTEX
8
0
70
0
10
52.53125
20
-140.35
0
VERTEX
8
0
70
0
10
52.53125
20
-126.35
0
VERTEX
8
0
70
0
10
66.53125
20
-126.35
0
VERTEX
8
0
70
0
10
66.53125
20
-140.35
0
VERTEX
8
0
70
0
10
52.53125
20
-140.35
0
SEQEND
0
POLYLINE
8
0
66
1
70
0
0
VERTEX
8
0
70
0
10
177.59375
20
-131.04999999999998
0
VERTEX
8
0
70
0
10
177.59375
20
-127.82
0
VERTEX
8
0
70
0
10
184.34375
20
-127.82
0
VERTEX
8
0
70
0
10
184.34375
20
-131.04999999999998
0
VERTEX
8
0
70
0
10
185.16875
20
-131.04999999999998
0
VERTEX
8
0
70
0
10
185.16875
20
-133.85
0
VERTEX
8
0
70
0
10
184.34375
20
-133.85
0
VERTEX
8
0
70
0
10
184.34375
20
-140.12
0
VERTEX
8
0
70
0
10
182.61875
20
-140.12
0
VERTEX
8
0
70
0
10
182.61875
20
-141.32
0
VERTEX
8
0
70
0
10
179.31875
20
-141.32
0
VERTEX
8
0
70
0
10
179.31875
20
-140.12
0
VERTEX
8
0
70
0
10
177.59375
20
-140.12
0
VERTEX
8
0
70
0
10
177.59375
20
-135.65
0
VERTEX
8
0
70
0
10
137.96875
20
-135.65
0
VERTEX
8
0
70
0
10
137.96875
20
-140.35
0
VERTEX
8
0
70
0
10
123.96875
20
-140.35
0
VERTEX
8
0
70
0
10
123.96875
20
-135.65
0
VERTEX
8
0
70
0
10
84.34375
20
-135.65
0
VERTEX
8
0
70
0
10
84.34375
20
-140.12
0
VERTEX
8
0
70
0
10
82.61875
20
-140.12
0
VERTEX
8
0
70
0
10
82.61875
20
-141.32
0
VERTEX
8
0
70
0
10
79.31875
20
-141.32
0
VERTEX
8
0
70
0
10
79.31875
20
-140.12
0
VERTEX
8
0
70
0
10
77.59375
20
-140.12
0
VERTEX
8
0
70
0
10
77.59375
20
-133.85
0
VERTEX
8
0
70
0
10
76.76875
20
-133.85
0
VERTEX
8
0
70
0
10
76.76875
20
-131.04999999999998
0
VERTEX
8
0
70
0
10
77.59375
20
-131.04999999999998
0
VERTEX
8
0
70
0
10
77.59375
20
-127.82
0
VERTEX
8
0
70
0
10
84.34375
20
-127.82
0
VERTEX
8
0
70
0
10
84.34375
20
-131.04999999999998
0
VERTEX
8
0
70
0
10
123.96875
20
-131.04999999999998
0
VERTEX
8
0
70
0
10
123.96875
20
-126.35
0
VERTEX
8
0
70
0
10
137.96875
20
-126.35
0
VERTEX
8
0
70
0
10
137.96875
20
-131.04999999999998
0
VERTEX
8
0
70
0
10
177.59375
20
-131.04999999999998
0
SEQEND
0
POLYLINE
8
0
66
1
70
0
0
VERTEX
8
0
70
0
10
195.40625
20
-140.35
0
VERTEX
8
0
70
0
10
195.40625
20
-126.35
0
VERTEX
8
0
70
0
10
209.40625
20
-126.35
0
VERTEX
8
0
70
0
10
209.40625
20
-140.35
0
VERTEX
8
0
70
0
10
195.40625
20
-140.35
0
SEQEND
0
POLYLINE
8
0
66
1
70
0
0
VERTEX
8
0
70
0
10
219.21875
20
-140.35
0
VERTEX
8
0
70
0
10
219.21875
20
-126.35
0
VERTEX
8
0
70
0
10
233.21875
20
-126.35
0
VERTEX
8
0
70
0
10
233.21875
20
-140.35
0
VERTEX
8
0
70
0
10
219.21875
20
-140.35
0
SEQEND
0
POLYLINE
8
0
66
1
70
0
0
VERTEX
8
0
70
0
10
243.03125
20
-140.35
0
VERTEX
8
0
70
0
10
243.03125
20
-126.35
0
VERTEX
8
0
70
0
10
257.03125
20
-126.35
0
VERTEX
8
0
70
0
10
257.03125
20
-140.35
0
VERTEX
8
0
70
0
10
243.03125
20
-140.35
0
SEQEND
0
POLYLINE
8
0
66
1
70
0
0
VERTEX
8
0
70
0
10
266.84375
20
-140.35
0
VERTEX
8
0
70
0
10
266.84375
20
-126.35
0
VERTEX
8
0
70
0
10
280.84375
20
-126.35
0
VERTEX
8
0
70
0
10
280.84375
20
-140.35
0
VERTEX
8
0
70
0
10
266.84375
20
-140.35
0
SEQEND
0
POLYLINE
8
0
66
1
70
0
0
VERTEX
8
0
70
0
10
293.0375
20
-140.35
0
VERTEX
8
0
70
0
10
293.0375
20
-126.35
0
VERTEX
8
0
70
0
10
307.0375
20
-126.35
0
VERTEX
8
0
70
0
10
307.0375
20
-140.35
0
VERTEX
8
0
70
0
10
293.0375
20
-140.35
0
SEQEND
0
POLYLINE
8
0
66
1
70
0
0
VERTEX
8
0
70
0
10
312.08750000000003
20
-140.35
0
VERTEX
8
0
70
0
10
312.08750000000003
20
-126.35
0
VERTEX
8
0
70
0
10
326.08750000000003
20
-126.35
0
VERTEX
8
0
70
0
10
326.08750000000003
20
-140.35
0
VERTEX
8
0
70
0
10
312.08750000000003
20
-140.35
0
SEQEND
0
POLYLINE
8
0
66
1
70
0
0
VERTEX
8
0
70
0
10
331.1375
20
-140.35
0
VERTEX
8
0
70
0
10
331.1375
20
-126.35
0
VERTEX
8
0
70
0
10
345.1375
20
-126.35
0
VERTEX
8
0
70
0
10
345.1375
20
-140.35
0
VERTEX
8
0
70
0
10
331.1375
20
-140.35
0
SEQEND
0
POLYLINE
8
0
66
1
70
0
0
VERTEX
8
0
70
0
10
380.0
20
-131.04999999999998
0
VERTEX
8
0
70
0
10
380.0
20
-127.82
0
VERTEX
8
0
70
0
10
386.75
20
-127.82
0
VERTEX
8
0
70
0
10
386.75
20
-131.04999999999998
0
VERTEX
8
0
70
0
10
387.57500000000005
20
-131.04999999999998
0
VERTEX
8
0
70
0
10
387.57500000000005
20
-133.85
0
VERTEX
8
0
70
0
10
386.75
20
-133.85
0
VERTEX
8
0
70
0
10
386.75
20
-140.12
0
VERTEX
8
0
70
0
10
385.02500000000003
20
-140.12
0
VERTEX
8
0
70
0
10
385.02500000000003
20
-141.32
0
VERTEX
8
0
70
0
10
381.725
20
-141.32
0
VERTEX
8
0
70
0
10
381.725
20
-140.12
0
VERTEX
8
0
70
0
10
380.0
20
-140.12
0
VERTEX
8
0
70
0
10
380.0
20
-135.65
0
VERTEX
8
0
70
0
10
378.475
20
-135.65
0
VERTEX
8
0
70
0
10
378.475
20
-140.35
0
VERTEX
8
0
70
0
10
364.475
20
-140.35
0
VERTEX
8
0
70
0
10
364.475
20
-135.65
0
VERTEX
8
0
70
0
10
362.95000000000005
20
-135.65
0
VERTEX
8
0
70
0
10
362.95000000000005
20
-140.12
0
VERTEX
8
0
70
0
10
361.225
20
-140.12
0
VERTEX
8
0
70
0
10
361.225
20
-141.32
0
VERTEX
8
0
70
0
10
357.925
20
-141.32
0
VERTEX
8
0
70
0
10
357.925
20
-140.12
0
VERTEX
8
0
70
0
10
356.20000000000005
20
-140.12
0
VERTEX
8
0
70
0
10
356.20000000000005
20
-133.85
0
VERTEX
8
0
70
0
10
355.375
20
-133.85
0
VERTEX
8
0
70
0
10
355.375
20
-131.04999999999998
0
VERTEX
8
0
70
0
10
356.20000000000005
20
-131.04999999999998
0
VERTEX
8
0
70
0
10
356.20000000000005
20
-127.82
0
VERTEX
8
0
70
0
10
362.95000000000005
20
-127.82
0
VERTEX
8
0
70
0
10
362.95000000000005
20
-131.04999999999998
0
VERTEX
8
0
70
0
10
364.475
20
-131.04999999999998
0
VERTEX
8
0
70
0
10
364.475
20
-126.35
0
VERTEX
8
0
70
0
10
378.475
20
-126.35
0
VERTEX
8
0
70
0
10
378.475
20
-131.04999999999998
0
VERTEX
8
0
70
0
10
380.0
20
-131.04999999999998
0
SEQEND
0
POLYLINE
8
0
66
1
70
0
0
VERTEX
8
0
70
0
10
393.05
20
-140.35
0
VERTEX
8
0
70
0
10
393.05
20
-126.35
0
VERTEX
8
0
70
0
10
407.05
20
-126.35
0
VERTEX
8
0
70
0
10
407.05
20
-140.35
0
VERTEX
8
0
70
0
10
393.05
20
-140.35
0
SEQEND
0
ENDSEC
0
EOF
